<?xml version="1.0" standalone="no"?>
<svg viewBox="0 0 200 200" xmlns="http://www.w3.org/2000/svg">
  <path fill="#FF0066" d="M28.1,-52.4C35,-44.6,38.3,-34.3,44.7,-25.2C51,-16,60.5,-8,58.7,-1C57,6,44.1,12,39.6,24.3C35,36.6,38.7,55.1,33.5,68.5C28.3,81.9,14.2,90.2,0,90.1C-14.1,90.1,-28.2,81.7,-30.1,66.4C-32,51,-21.6,28.8,-29.9,16.5C-38.2,4.3,-65.3,2.2,-77.5,-7.1C-89.8,-16.4,-87.4,-32.7,-73.1,-34.5C-58.7,-36.3,-32.5,-23.6,-18.4,-27.3C-4.2,-30.9,-2.1,-50.9,4.2,-58.2C10.6,-65.6,21.1,-60.2,28.1,-52.4Z" transform="translate(100 100)" />
</svg>
