<?xml version="1.0" encoding="UTF-8" standalone="no"?>
<!DOCTYPE svg PUBLIC "-//W3C//DTD SVG 1.1//EN" "http://www.w3.org/Graphics/SVG/1.1/DTD/svg11.dtd">
<svg version="1.1" xmlns="http://www.w3.org/2000/svg" xmlns:xlink="http://www.w3.org/1999/xlink" preserveAspectRatio="xMidYMid meet" viewBox="0 0 640 640" width="640" height="640"><defs><path d="M539.63 187.23C539.4 186.53 539.09 185.86 538.71 185.23C538.6 185.05 538.5 184.87 538.39 184.7C537.91 183.99 537.36 183.32 536.7 182.74C536.63 182.68 536.56 182.65 536.49 182.6C536.06 182.23 535.6 181.88 535.09 181.58C534.89 181.47 534.68 181.4 534.47 181.3C534.37 181.25 534.29 181.16 534.18 181.11C514.89 172.37 360.57 102.4 341.28 93.65C339.15 92.69 336.73 92.48 334.48 93.06C311.93 98.91 131.6 145.71 109.06 151.56C107.45 151.71 105.85 152.2 104.4 153.14C101.08 155.32 99.48 159.09 99.87 162.78C99.87 186.31 99.87 374.5 99.87 398.03C99.87 401.76 101.9 405.2 105.17 407C127.87 419.48 309.42 519.31 332.11 531.79C332.59 532.05 333.09 532.2 333.6 532.38C333.9 532.48 334.18 532.65 334.49 532.72C335.12 532.89 335.76 532.93 336.4 532.97C336.62 532.99 336.83 533.06 337.04 533.06C337.05 533.06 337.07 533.06 337.08 533.06C337.85 533.05 338.61 532.93 339.35 532.76C339.56 532.71 339.77 532.65 339.97 532.59C340.58 532.41 341.18 532.17 341.76 531.86C341.9 531.79 342.04 531.75 342.18 531.66C342.76 531.33 343.32 530.94 343.84 530.48C363.13 513.4 517.45 376.72 536.74 359.63C538.93 357.69 540.19 354.9 540.19 351.97C540.19 335.81 540.19 206.59 540.19 190.44C540.19 190.36 540.16 190.28 540.15 190.21C540.13 189.34 540.02 188.48 539.78 187.64C539.74 187.5 539.67 187.36 539.63 187.23ZM515.41 195.1L333.21 509.02L330.96 507.78L187.88 270.86C346.53 236.91 434.67 218.05 452.3 214.28C453.62 213.99 454.5 212.72 454.29 211.38C454.08 209.98 452.77 209.03 451.37 209.24C424.18 213.49 206.62 247.48 179.42 251.73C179.24 251.76 179.03 251.8 178.86 251.84C178.14 251.99 177.46 252.23 176.82 252.52C173.43 246.9 156.48 218.85 125.98 168.34L336.12 113.8L515.41 195.1ZM320.33 501.94L120.35 391.97L120.35 196.23L320.33 501.94ZM519.71 228.49L519.71 347.35L377.75 473.09L519.71 228.49Z" id="eKxXIfAwP"></path></defs><g><g><g><use xlink:href="#eKxXIfAwP" opacity="1" fill="#000000" fill-opacity="1"></use><g><use xlink:href="#eKxXIfAwP" opacity="1" fill-opacity="0" stroke="#000000" stroke-width="1" stroke-opacity="0"></use></g></g></g></g></svg>