<svg xmlns="http://www.w3.org/2000/svg" viewBox="0 0 441.395 441.34">
  <defs>
    <style>
      .cls-1 {
        fill: #2d3748;
      }

      .cls-2 {
        fill: rgba(45,55,72,0);
        stroke: rgba(0,0,0,0);
      }
    </style>
  </defs>
  <g id="no-obsidian" transform="translate(-99.295 -92.22)">
    <g id="Group_3" data-name="Group 3">
      <g id="Group_2" data-name="Group 2">
        <path id="Path_1" data-name="Path 1" class="cls-1" d="M539.63,187.23a9.789,9.789,0,0,0-.92-2c-.11-.18-.21-.36-.32-.53a10.136,10.136,0,0,0-1.69-1.96c-.07-.06-.14-.09-.21-.14a9.666,9.666,0,0,0-1.4-1.02c-.2-.11-.41-.18-.62-.28-.1-.05-.18-.14-.29-.19-19.29-8.74-173.61-78.71-192.9-87.46a10.344,10.344,0,0,0-6.8-.59c-22.55,5.85-202.88,52.65-225.42,58.5a10.064,10.064,0,0,0-9.19,11.22V398.03a10.241,10.241,0,0,0,5.3,8.97c22.7,12.48,204.25,112.31,226.94,124.79a10.036,10.036,0,0,0,1.49.59c.3.1.58.27.89.34a9.52,9.52,0,0,0,1.91.25c.22.02.43.09.64.09h.04a10.784,10.784,0,0,0,2.27-.3c.21-.05.42-.11.62-.17a9.487,9.487,0,0,0,1.79-.73,3.993,3.993,0,0,0,.42-.2,9.846,9.846,0,0,0,1.66-1.18c19.29-17.08,173.61-153.76,192.9-170.85a10.239,10.239,0,0,0,3.45-7.66V190.44a1.578,1.578,0,0,0-.04-.23,10.164,10.164,0,0,0-.37-2.57C539.74,187.5,539.67,187.36,539.63,187.23Zm-24.22,7.87L333.21,509.02l-2.25-1.24L187.88,270.86q237.975-50.925,264.42-56.58a2.564,2.564,0,0,0-.93-5.04c-27.19,4.25-244.75,38.24-271.95,42.49-.18.03-.39.07-.56.11a9.777,9.777,0,0,0-2.04.68q-5.085-8.43-50.84-84.18L336.12,113.8ZM320.33,501.94,120.35,391.97V196.23ZM519.71,228.49V347.35L377.75,473.09Z"/>
        <g id="Group_1" data-name="Group 1">
          <path id="Path_2" data-name="Path 2" class="cls-2" d="M539.63,187.23a9.789,9.789,0,0,0-.92-2c-.11-.18-.21-.36-.32-.53a10.136,10.136,0,0,0-1.69-1.96c-.07-.06-.14-.09-.21-.14a9.666,9.666,0,0,0-1.4-1.02c-.2-.11-.41-.18-.62-.28-.1-.05-.18-.14-.29-.19-19.29-8.74-173.61-78.71-192.9-87.46a10.344,10.344,0,0,0-6.8-.59c-22.55,5.85-202.88,52.65-225.42,58.5a10.064,10.064,0,0,0-9.19,11.22V398.03a10.241,10.241,0,0,0,5.3,8.97c22.7,12.48,204.25,112.31,226.94,124.79a10.036,10.036,0,0,0,1.49.59c.3.1.58.27.89.34a9.52,9.52,0,0,0,1.91.25c.22.02.43.09.64.09h.04a10.784,10.784,0,0,0,2.27-.3c.21-.05.42-.11.62-.17a9.487,9.487,0,0,0,1.79-.73,3.993,3.993,0,0,0,.42-.2,9.846,9.846,0,0,0,1.66-1.18c19.29-17.08,173.61-153.76,192.9-170.85a10.239,10.239,0,0,0,3.45-7.66V190.44a1.578,1.578,0,0,0-.04-.23,10.164,10.164,0,0,0-.37-2.57C539.74,187.5,539.67,187.36,539.63,187.23Zm-24.22,7.87L333.21,509.02l-2.25-1.24L187.88,270.86q237.975-50.925,264.42-56.58a2.564,2.564,0,0,0-.93-5.04c-27.19,4.25-244.75,38.24-271.95,42.49-.18.03-.39.07-.56.11a9.777,9.777,0,0,0-2.04.68q-5.085-8.43-50.84-84.18L336.12,113.8ZM320.33,501.94,120.35,391.97V196.23ZM519.71,228.49V347.35L377.75,473.09Z"/>
        </g>
      </g>
    </g>
  </g>
</svg>
