<svg width="375" height="84" viewBox="0 0 375 84" fill="none" xmlns="http://www.w3.org/2000/svg">
	<mask id="path-1-outside-1" maskUnits="userSpaceOnUse" x="0" y="0" width="375" height="84" fill="black">
		<rect fill="white" width="375" height="84" />
		<path d="M42.8672 79.8301C39.2865 79.8301 35.8359 79.3743 32.5156 78.4629C29.2279 77.5514 26.1354 76.2819 23.2383 74.6543C20.3737 72.9941 17.7533 71.0085 15.377 68.6973C13.0332 66.3861 11.015 63.8307 9.32227 61.0312C7.62956 58.1992 6.3112 55.1719 5.36719 51.9492C4.45573 48.694 4 45.3086 4 41.793C4 38.3424 4.45573 35.0059 5.36719 31.7832C6.3112 28.5605 7.62956 25.5495 9.32227 22.75C11.015 19.9505 13.0332 17.3952 15.377 15.084C17.7533 12.7728 20.3737 10.8034 23.2383 9.17578C26.1354 7.54818 29.2279 6.27865 32.5156 5.36719C35.8359 4.45573 39.2865 4 42.8672 4C46.4154 4 49.8333 4.45573 53.1211 5.36719C56.4089 6.24609 59.485 7.51562 62.3496 9.17578C65.2142 10.8034 67.8184 12.7728 70.1621 15.084C72.5384 17.3952 74.5566 19.9505 76.2168 22.75C77.9095 25.5495 79.2116 28.5605 80.123 31.7832C81.0671 35.0059 81.5391 38.3424 81.5391 41.793C81.5391 45.3086 81.0671 48.694 80.123 51.9492C79.2116 55.1719 77.9095 58.1992 76.2168 61.0312C74.5566 63.8307 72.5384 66.3861 70.1621 68.6973C67.8184 71.0085 65.2142 72.9941 62.3496 74.6543C59.485 76.2819 56.4089 77.5514 53.1211 78.4629C49.8333 79.3743 46.4154 79.8301 42.8672 79.8301ZM42.8672 75.0938C47.2943 75.0938 51.2005 74.2311 54.5859 72.5059C58.0039 70.7806 60.8685 68.4206 63.1797 65.4258C65.4909 62.431 67.2324 58.9154 68.4043 54.8789C69.6087 50.8099 70.2109 46.4479 70.2109 41.793C70.2109 37.1706 69.625 32.8411 68.4531 28.8047C67.2812 24.7682 65.5397 21.2689 63.2285 18.3066C60.9499 15.3444 58.1016 13.0169 54.6836 11.3242C51.2656 9.59896 47.3268 8.73633 42.8672 8.73633C38.3424 8.73633 34.3711 9.59896 30.9531 11.3242C27.5677 13.0169 24.7194 15.3444 22.4082 18.3066C20.1296 21.2689 18.4043 24.7682 17.2324 28.8047C16.0931 32.8411 15.5234 37.1706 15.5234 41.793C15.5234 46.4479 16.1094 50.8099 17.2812 54.8789C18.4531 58.9154 20.1784 62.431 22.457 65.4258C24.7682 68.4206 27.6328 70.7806 31.0508 72.5059C34.4688 74.2311 38.4076 75.0938 42.8672 75.0938Z" />
		<path d="M100.484 34.8594C102.34 33.7201 104.309 32.8737 106.393 32.3203C108.476 31.7669 110.348 31.4902 112.008 31.4902C116.142 31.4902 119.706 32.0599 122.701 33.1992C125.729 34.306 128.219 35.8522 130.172 37.8379C132.158 39.791 133.622 42.1348 134.566 44.8691C135.51 47.571 135.982 50.5169 135.982 53.707C135.982 56.9297 135.543 60.0384 134.664 63.0332C133.818 65.9954 132.288 68.6159 130.074 70.8945C127.893 73.1732 124.915 74.9961 121.139 76.3633C117.363 77.7305 112.577 78.4141 106.783 78.4141H90.6211V5.80664H100.484V34.8594ZM110.982 35.5918C108.899 35.5918 107.011 35.8359 105.318 36.3242C103.658 36.8125 102.047 37.5286 100.484 38.4727V74.4102H106.783C109.713 74.4102 112.219 74.0521 114.303 73.3359C116.386 72.6198 118.144 71.6758 119.576 70.5039C121.008 69.2995 122.148 67.9648 122.994 66.5C123.873 65.0026 124.54 63.4889 124.996 61.959C125.452 60.3965 125.745 58.8991 125.875 57.4668C126.038 56.002 126.119 54.7161 126.119 53.6094C126.119 51.2331 125.777 48.9707 125.094 46.8223C124.443 44.6413 123.466 42.7207 122.164 41.0605C120.895 39.4004 119.316 38.082 117.428 37.1055C115.572 36.0964 113.424 35.5918 110.982 35.5918Z" />
		<path d="M158.297 31.4902C159.664 31.4902 160.852 31.5553 161.861 31.6855C162.87 31.7832 163.814 31.946 164.693 32.1738C165.605 32.4017 166.5 32.6621 167.379 32.9551C168.258 33.248 169.234 33.5736 170.309 33.9316L170.211 38.2285C168.681 37.6751 167.053 37.1868 165.328 36.7637C163.635 36.3405 161.633 36.1289 159.322 36.1289C158.834 36.1289 158.248 36.194 157.564 36.3242C156.881 36.4544 156.23 36.6823 155.611 37.0078C154.993 37.3008 154.472 37.7077 154.049 38.2285C153.626 38.7493 153.414 39.3841 153.414 40.1328C153.414 40.9792 153.788 42.0046 154.537 43.209C155.318 44.4134 156.539 45.9108 158.199 47.7012L163.424 53.6094C164.531 54.8789 165.621 56.1159 166.695 57.3203C167.802 58.4922 168.779 59.6478 169.625 60.7871C170.471 61.9264 171.155 63.0658 171.676 64.2051C172.229 65.3118 172.506 66.4186 172.506 67.5254C172.506 69.6738 172.018 71.4967 171.041 72.9941C170.064 74.4915 168.795 75.7285 167.232 76.7051C165.67 77.6491 163.896 78.3327 161.91 78.7559C159.957 79.179 157.988 79.3906 156.002 79.3906C153.235 79.3906 150.777 79.0814 148.629 78.4629C146.513 77.877 144.511 77.0306 142.623 75.9238L143.014 71.5293C144.511 72.3105 146.139 73.043 147.896 73.7266C149.654 74.3776 151.461 74.7031 153.316 74.7031C156.376 74.7031 158.671 74.166 160.201 73.0918C161.731 72.0176 162.496 70.4551 162.496 68.4043C162.496 66.972 161.894 65.4746 160.689 63.9121C159.518 62.3496 158.053 60.6243 156.295 58.7363L151.119 52.9258C149.752 51.2005 148.58 49.752 147.604 48.5801C146.66 47.4082 145.895 46.3665 145.309 45.4551C144.723 44.5436 144.283 43.681 143.99 42.8672C143.73 42.0534 143.6 41.1419 143.6 40.1328C143.6 38.4727 143.974 37.0892 144.723 35.9824C145.504 34.8757 146.546 33.9967 147.848 33.3457C149.182 32.6621 150.745 32.1901 152.535 31.9297C154.326 31.6367 156.246 31.4902 158.297 31.4902Z" />
		<path d="M191.744 78.4141H181.832V32.418H191.744V78.4141ZM191.744 24.7031H181.832V18.8926H191.744V24.7031Z" />
		<path d="M231.197 78.4141C227.324 78.4141 223.906 78.1048 220.943 77.4863C218.014 76.8678 215.458 76.0052 213.277 74.8984C211.129 73.7591 209.322 72.4245 207.857 70.8945C206.425 69.3646 205.27 67.6882 204.391 65.8652C203.512 64.0098 202.893 62.0566 202.535 60.0059C202.177 57.9551 201.998 55.8555 201.998 53.707C201.998 50.5169 202.47 47.571 203.414 44.8691C204.391 42.1348 205.855 39.791 207.809 37.8379C209.794 35.8522 212.285 34.306 215.279 33.1992C218.307 32.0599 221.887 31.4902 226.021 31.4902C227.649 31.4902 229.488 31.7669 231.539 32.3203C233.622 32.8737 235.608 33.7038 237.496 34.8105V5.80664H247.408V78.4141H231.197ZM211.91 53.6094C211.91 54.7161 211.975 56.002 212.105 57.4668C212.268 58.8991 212.577 60.3965 213.033 61.959C213.489 63.4889 214.14 65.0026 214.986 66.5C215.865 67.9648 217.005 69.2995 218.404 70.5039C219.837 71.6758 221.594 72.6198 223.678 73.3359C225.794 74.0521 228.3 74.4102 231.197 74.4102H237.496V38.4238C235.934 37.4798 234.306 36.7799 232.613 36.3242C230.921 35.8359 229.049 35.5918 226.998 35.5918C224.589 35.5918 222.441 36.0964 220.553 37.1055C218.697 38.082 217.118 39.4004 215.816 41.0605C214.547 42.7207 213.57 44.6413 212.887 46.8223C212.236 48.9707 211.91 51.2331 211.91 53.6094Z" />
		<path d="M270.455 78.4141H260.543V32.418H270.455V78.4141ZM270.455 24.7031H260.543V18.8926H270.455V24.7031Z" />
		<path d="M299.557 35.7383C297.994 35.7383 296.627 35.7871 295.455 35.8848C294.316 35.9824 293.274 36.1126 292.33 36.2754C291.386 36.4382 290.507 36.6335 289.693 36.8613C288.88 37.0566 288.066 37.2682 287.252 37.4961L286.08 34.3223C288.814 33.3132 291.663 32.597 294.625 32.1738C297.62 31.7181 300.452 31.4902 303.121 31.4902C306.539 31.4902 309.339 31.6693 311.52 32.0273C313.733 32.3854 315.458 32.9876 316.695 33.834C317.932 34.6478 318.779 35.7546 319.234 37.1543C319.723 38.5215 319.967 40.2467 319.967 42.3301V78.4141H303.951C299.589 78.4141 295.862 77.9583 292.77 77.0469C289.71 76.1354 287.203 74.9147 285.25 73.3848C283.297 71.8223 281.865 70.0482 280.953 68.0625C280.042 66.0443 279.586 63.9284 279.586 61.7148C279.586 58.9805 280.009 56.5716 280.855 54.4883C281.734 52.4049 282.988 50.6634 284.615 49.2637C286.243 47.8314 288.229 46.7572 290.572 46.041C292.916 45.2923 295.585 44.918 298.58 44.918C300.208 44.918 302.047 45.1947 304.098 45.748C306.181 46.3014 308.167 47.1315 310.055 48.2383V42.1348C310.055 41.3861 309.973 40.6374 309.811 39.8887C309.648 39.1074 309.225 38.4238 308.541 37.8379C307.857 37.2194 306.799 36.7148 305.367 36.3242C303.967 35.9336 302.031 35.7383 299.557 35.7383ZM310.055 74.4102V51.8027C308.492 50.8587 306.865 50.1589 305.172 49.7031C303.479 49.2474 301.607 49.0195 299.557 49.0195C297.929 49.0195 296.48 49.3125 295.211 49.8984C293.974 50.4844 292.932 51.3145 292.086 52.3887C291.24 53.4629 290.589 54.7487 290.133 56.2461C289.71 57.7435 289.498 59.4036 289.498 61.2266C289.498 61.7474 289.514 62.431 289.547 63.2773C289.612 64.1237 289.775 65.0352 290.035 66.0117C290.328 66.9883 290.751 67.9811 291.305 68.9902C291.891 69.9668 292.704 70.862 293.746 71.6758C294.788 72.4896 296.106 73.1569 297.701 73.6777C299.296 74.166 301.249 74.4102 303.561 74.4102H310.055Z" />
		<path d="M342.721 36.2266C344.804 35.3151 346.725 34.5664 348.482 33.9805C350.24 33.362 351.884 32.8737 353.414 32.5156C354.944 32.125 356.36 31.8646 357.662 31.7344C358.997 31.5716 360.283 31.4902 361.52 31.4902C364.579 31.4902 366.907 32.2878 368.502 33.8828C370.13 35.4779 370.943 38.0495 370.943 41.5977V78.4141H361.031V43.1113C361.031 42.3952 360.95 41.6628 360.787 40.9141C360.657 40.1654 360.396 39.498 360.006 38.9121C359.615 38.3262 359.078 37.8542 358.395 37.4961C357.743 37.1055 356.913 36.9102 355.904 36.9102C354.244 36.9102 352.324 37.1217 350.143 37.5449C347.962 37.9355 345.488 38.7656 342.721 40.0352V78.4141H332.809V32.418H342.721V36.2266Z" />
	</mask>
	<path d="M42.8672 79.8301C39.2865 79.8301 35.8359 79.3743 32.5156 78.4629C29.2279 77.5514 26.1354 76.2819 23.2383 74.6543C20.3737 72.9941 17.7533 71.0085 15.377 68.6973C13.0332 66.3861 11.015 63.8307 9.32227 61.0312C7.62956 58.1992 6.3112 55.1719 5.36719 51.9492C4.45573 48.694 4 45.3086 4 41.793C4 38.3424 4.45573 35.0059 5.36719 31.7832C6.3112 28.5605 7.62956 25.5495 9.32227 22.75C11.015 19.9505 13.0332 17.3952 15.377 15.084C17.7533 12.7728 20.3737 10.8034 23.2383 9.17578C26.1354 7.54818 29.2279 6.27865 32.5156 5.36719C35.8359 4.45573 39.2865 4 42.8672 4C46.4154 4 49.8333 4.45573 53.1211 5.36719C56.4089 6.24609 59.485 7.51562 62.3496 9.17578C65.2142 10.8034 67.8184 12.7728 70.1621 15.084C72.5384 17.3952 74.5566 19.9505 76.2168 22.75C77.9095 25.5495 79.2116 28.5605 80.123 31.7832C81.0671 35.0059 81.5391 38.3424 81.5391 41.793C81.5391 45.3086 81.0671 48.694 80.123 51.9492C79.2116 55.1719 77.9095 58.1992 76.2168 61.0312C74.5566 63.8307 72.5384 66.3861 70.1621 68.6973C67.8184 71.0085 65.2142 72.9941 62.3496 74.6543C59.485 76.2819 56.4089 77.5514 53.1211 78.4629C49.8333 79.3743 46.4154 79.8301 42.8672 79.8301ZM42.8672 75.0938C47.2943 75.0938 51.2005 74.2311 54.5859 72.5059C58.0039 70.7806 60.8685 68.4206 63.1797 65.4258C65.4909 62.431 67.2324 58.9154 68.4043 54.8789C69.6087 50.8099 70.2109 46.4479 70.2109 41.793C70.2109 37.1706 69.625 32.8411 68.4531 28.8047C67.2812 24.7682 65.5397 21.2689 63.2285 18.3066C60.9499 15.3444 58.1016 13.0169 54.6836 11.3242C51.2656 9.59896 47.3268 8.73633 42.8672 8.73633C38.3424 8.73633 34.3711 9.59896 30.9531 11.3242C27.5677 13.0169 24.7194 15.3444 22.4082 18.3066C20.1296 21.2689 18.4043 24.7682 17.2324 28.8047C16.0931 32.8411 15.5234 37.1706 15.5234 41.793C15.5234 46.4479 16.1094 50.8099 17.2812 54.8789C18.4531 58.9154 20.1784 62.431 22.457 65.4258C24.7682 68.4206 27.6328 70.7806 31.0508 72.5059C34.4688 74.2311 38.4076 75.0938 42.8672 75.0938Z" stroke="#2D3748" stroke-width="8" mask="url(#path-1-outside-1)" />
	<path d="M100.484 34.8594C102.34 33.7201 104.309 32.8737 106.393 32.3203C108.476 31.7669 110.348 31.4902 112.008 31.4902C116.142 31.4902 119.706 32.0599 122.701 33.1992C125.729 34.306 128.219 35.8522 130.172 37.8379C132.158 39.791 133.622 42.1348 134.566 44.8691C135.51 47.571 135.982 50.5169 135.982 53.707C135.982 56.9297 135.543 60.0384 134.664 63.0332C133.818 65.9954 132.288 68.6159 130.074 70.8945C127.893 73.1732 124.915 74.9961 121.139 76.3633C117.363 77.7305 112.577 78.4141 106.783 78.4141H90.6211V5.80664H100.484V34.8594ZM110.982 35.5918C108.899 35.5918 107.011 35.8359 105.318 36.3242C103.658 36.8125 102.047 37.5286 100.484 38.4727V74.4102H106.783C109.713 74.4102 112.219 74.0521 114.303 73.3359C116.386 72.6198 118.144 71.6758 119.576 70.5039C121.008 69.2995 122.148 67.9648 122.994 66.5C123.873 65.0026 124.54 63.4889 124.996 61.959C125.452 60.3965 125.745 58.8991 125.875 57.4668C126.038 56.002 126.119 54.7161 126.119 53.6094C126.119 51.2331 125.777 48.9707 125.094 46.8223C124.443 44.6413 123.466 42.7207 122.164 41.0605C120.895 39.4004 119.316 38.082 117.428 37.1055C115.572 36.0964 113.424 35.5918 110.982 35.5918Z" stroke="#2D3748" stroke-width="8" mask="url(#path-1-outside-1)" />
	<path d="M158.297 31.4902C159.664 31.4902 160.852 31.5553 161.861 31.6855C162.87 31.7832 163.814 31.946 164.693 32.1738C165.605 32.4017 166.5 32.6621 167.379 32.9551C168.258 33.248 169.234 33.5736 170.309 33.9316L170.211 38.2285C168.681 37.6751 167.053 37.1868 165.328 36.7637C163.635 36.3405 161.633 36.1289 159.322 36.1289C158.834 36.1289 158.248 36.194 157.564 36.3242C156.881 36.4544 156.23 36.6823 155.611 37.0078C154.993 37.3008 154.472 37.7077 154.049 38.2285C153.626 38.7493 153.414 39.3841 153.414 40.1328C153.414 40.9792 153.788 42.0046 154.537 43.209C155.318 44.4134 156.539 45.9108 158.199 47.7012L163.424 53.6094C164.531 54.8789 165.621 56.1159 166.695 57.3203C167.802 58.4922 168.779 59.6478 169.625 60.7871C170.471 61.9264 171.155 63.0658 171.676 64.2051C172.229 65.3118 172.506 66.4186 172.506 67.5254C172.506 69.6738 172.018 71.4967 171.041 72.9941C170.064 74.4915 168.795 75.7285 167.232 76.7051C165.67 77.6491 163.896 78.3327 161.91 78.7559C159.957 79.179 157.988 79.3906 156.002 79.3906C153.235 79.3906 150.777 79.0814 148.629 78.4629C146.513 77.877 144.511 77.0306 142.623 75.9238L143.014 71.5293C144.511 72.3105 146.139 73.043 147.896 73.7266C149.654 74.3776 151.461 74.7031 153.316 74.7031C156.376 74.7031 158.671 74.166 160.201 73.0918C161.731 72.0176 162.496 70.4551 162.496 68.4043C162.496 66.972 161.894 65.4746 160.689 63.9121C159.518 62.3496 158.053 60.6243 156.295 58.7363L151.119 52.9258C149.752 51.2005 148.58 49.752 147.604 48.5801C146.66 47.4082 145.895 46.3665 145.309 45.4551C144.723 44.5436 144.283 43.681 143.99 42.8672C143.73 42.0534 143.6 41.1419 143.6 40.1328C143.6 38.4727 143.974 37.0892 144.723 35.9824C145.504 34.8757 146.546 33.9967 147.848 33.3457C149.182 32.6621 150.745 32.1901 152.535 31.9297C154.326 31.6367 156.246 31.4902 158.297 31.4902Z" stroke="#2D3748" stroke-width="8" mask="url(#path-1-outside-1)" />
	<path d="M191.744 78.4141H181.832V32.418H191.744V78.4141ZM191.744 24.7031H181.832V18.8926H191.744V24.7031Z" stroke="#2D3748" stroke-width="8" mask="url(#path-1-outside-1)" />
	<path d="M231.197 78.4141C227.324 78.4141 223.906 78.1048 220.943 77.4863C218.014 76.8678 215.458 76.0052 213.277 74.8984C211.129 73.7591 209.322 72.4245 207.857 70.8945C206.425 69.3646 205.27 67.6882 204.391 65.8652C203.512 64.0098 202.893 62.0566 202.535 60.0059C202.177 57.9551 201.998 55.8555 201.998 53.707C201.998 50.5169 202.47 47.571 203.414 44.8691C204.391 42.1348 205.855 39.791 207.809 37.8379C209.794 35.8522 212.285 34.306 215.279 33.1992C218.307 32.0599 221.887 31.4902 226.021 31.4902C227.649 31.4902 229.488 31.7669 231.539 32.3203C233.622 32.8737 235.608 33.7038 237.496 34.8105V5.80664H247.408V78.4141H231.197ZM211.91 53.6094C211.91 54.7161 211.975 56.002 212.105 57.4668C212.268 58.8991 212.577 60.3965 213.033 61.959C213.489 63.4889 214.14 65.0026 214.986 66.5C215.865 67.9648 217.005 69.2995 218.404 70.5039C219.837 71.6758 221.594 72.6198 223.678 73.3359C225.794 74.0521 228.3 74.4102 231.197 74.4102H237.496V38.4238C235.934 37.4798 234.306 36.7799 232.613 36.3242C230.921 35.8359 229.049 35.5918 226.998 35.5918C224.589 35.5918 222.441 36.0964 220.553 37.1055C218.697 38.082 217.118 39.4004 215.816 41.0605C214.547 42.7207 213.57 44.6413 212.887 46.8223C212.236 48.9707 211.91 51.2331 211.91 53.6094Z" stroke="#2D3748" stroke-width="8" mask="url(#path-1-outside-1)" />
	<path d="M270.455 78.4141H260.543V32.418H270.455V78.4141ZM270.455 24.7031H260.543V18.8926H270.455V24.7031Z" stroke="#2D3748" stroke-width="8" mask="url(#path-1-outside-1)" />
	<path d="M299.557 35.7383C297.994 35.7383 296.627 35.7871 295.455 35.8848C294.316 35.9824 293.274 36.1126 292.33 36.2754C291.386 36.4382 290.507 36.6335 289.693 36.8613C288.88 37.0566 288.066 37.2682 287.252 37.4961L286.08 34.3223C288.814 33.3132 291.663 32.597 294.625 32.1738C297.62 31.7181 300.452 31.4902 303.121 31.4902C306.539 31.4902 309.339 31.6693 311.52 32.0273C313.733 32.3854 315.458 32.9876 316.695 33.834C317.932 34.6478 318.779 35.7546 319.234 37.1543C319.723 38.5215 319.967 40.2467 319.967 42.3301V78.4141H303.951C299.589 78.4141 295.862 77.9583 292.77 77.0469C289.71 76.1354 287.203 74.9147 285.25 73.3848C283.297 71.8223 281.865 70.0482 280.953 68.0625C280.042 66.0443 279.586 63.9284 279.586 61.7148C279.586 58.9805 280.009 56.5716 280.855 54.4883C281.734 52.4049 282.988 50.6634 284.615 49.2637C286.243 47.8314 288.229 46.7572 290.572 46.041C292.916 45.2923 295.585 44.918 298.58 44.918C300.208 44.918 302.047 45.1947 304.098 45.748C306.181 46.3014 308.167 47.1315 310.055 48.2383V42.1348C310.055 41.3861 309.973 40.6374 309.811 39.8887C309.648 39.1074 309.225 38.4238 308.541 37.8379C307.857 37.2194 306.799 36.7148 305.367 36.3242C303.967 35.9336 302.031 35.7383 299.557 35.7383ZM310.055 74.4102V51.8027C308.492 50.8587 306.865 50.1589 305.172 49.7031C303.479 49.2474 301.607 49.0195 299.557 49.0195C297.929 49.0195 296.48 49.3125 295.211 49.8984C293.974 50.4844 292.932 51.3145 292.086 52.3887C291.24 53.4629 290.589 54.7487 290.133 56.2461C289.71 57.7435 289.498 59.4036 289.498 61.2266C289.498 61.7474 289.514 62.431 289.547 63.2773C289.612 64.1237 289.775 65.0352 290.035 66.0117C290.328 66.9883 290.751 67.9811 291.305 68.9902C291.891 69.9668 292.704 70.862 293.746 71.6758C294.788 72.4896 296.106 73.1569 297.701 73.6777C299.296 74.166 301.249 74.4102 303.561 74.4102H310.055Z" stroke="#2D3748" stroke-width="8" mask="url(#path-1-outside-1)" />
	<path d="M342.721 36.2266C344.804 35.3151 346.725 34.5664 348.482 33.9805C350.24 33.362 351.884 32.8737 353.414 32.5156C354.944 32.125 356.36 31.8646 357.662 31.7344C358.997 31.5716 360.283 31.4902 361.52 31.4902C364.579 31.4902 366.907 32.2878 368.502 33.8828C370.13 35.4779 370.943 38.0495 370.943 41.5977V78.4141H361.031V43.1113C361.031 42.3952 360.95 41.6628 360.787 40.9141C360.657 40.1654 360.396 39.498 360.006 38.9121C359.615 38.3262 359.078 37.8542 358.395 37.4961C357.743 37.1055 356.913 36.9102 355.904 36.9102C354.244 36.9102 352.324 37.1217 350.143 37.5449C347.962 37.9355 345.488 38.7656 342.721 40.0352V78.4141H332.809V32.418H342.721V36.2266Z" stroke="#2D3748" stroke-width="8" mask="url(#path-1-outside-1)" />
</svg>
