<svg id="undraw_forming_ideas_1pav" xmlns="http://www.w3.org/2000/svg" viewBox="0 0 1088.97 784.104">
  <defs>
    <style>
      .cls-1 {
        fill: #f2f2f2;
      }

      .cls-2 {
        fill: #6c63ff;
      }

      .cls-3 {
        opacity: 0.1;
      }

      .cls-4 {
        fill: #2f2e41;
      }

      .cls-5, .cls-7 {
        fill: #3f3d56;
      }

      .cls-6 {
        fill: #ff6584;
      }

      .cls-7 {
        opacity: 0.29;
      }
    </style>
  </defs>
  <path id="Path_1" data-name="Path 1" class="cls-1" d="M448.109,273.772A104.983,104.983,0,0,1,293.758,270.4L59.514,492.127,388.907,840.119,702.88,542.927Z" transform="translate(-59.514 -57.831)"/>
  <path id="Path_2" data-name="Path 2" class="cls-1" d="M372.293,284.015a91.635,91.635,0,0,0,66.194-28.153l-65.318-69.006-69.787,66.057a91.68,91.68,0,0,0,68.912,31.1Z" transform="translate(-59.514 -57.831)"/>
  <path id="Path_30" data-name="Path 30" class="cls-2" d="M515.939,505.835c-3.372,5.378-7.746,5.252-11.69,2.779s-5.964-6.355-2.593-11.733,14.8-7.744,14.8-7.744S519.311,500.457,515.939,505.835Z" transform="translate(-59.514 -57.831)"/>
  <path id="Path_3" data-name="Path 3" class="cls-2" d="M886.486,384.935a164.833,164.833,0,0,1-165,165q-1.41,0-2.82-.03c-3.96-.06-7.87-.26-11.76-.6a165.007,165.007,0,1,1,179.58-164.37Z" transform="translate(-59.514 -57.831)"/>
  <path id="Path_4" data-name="Path 4" class="cls-3" d="M817.106,325.225a164.077,164.077,0,0,0,19.888-59.078,165,165,0,0,0-278.017,96.589A164.377,164.377,0,0,0,658.906,408.3c3.89.34,7.8.54,11.76.6q1.41.03,2.82.03a164.757,164.757,0,0,0,143.62-83.71Z" transform="translate(-59.514 -57.831)"/>
  <rect id="Rectangle_1" data-name="Rectangle 1" class="cls-4" width="330" height="319" transform="translate(447.972 465.104)"/>
  <path id="Path_33" data-name="Path 33" class="cls-5" d="M746.062,306.924l108.045,169.62L962.15,646.163H529.972l108.045-169.62Z" transform="translate(-304.18 134.941)"/>
  <path id="Path_5" data-name="Path 5" class="cls-3" d="M879.356,446.535a165.194,165.194,0,0,1-115.61,96.4h36.74v296H556.066l137.17-237.59,31.43-54.44,2.29-3.97,104.03-180.18Z" transform="translate(-59.514 -57.831)"/>
  <path id="Path_6" data-name="Path 6" class="cls-5" d="M805.472,306.924l137.75,238.59L1080.97,784.1h-551l137.75-238.59Z" transform="translate(8)"/>
  <rect id="Rectangle_2" data-name="Rectangle 2" class="cls-4" width="1044" height="4" transform="translate(36.972 780.104)"/>
  <circle id="Ellipse_3" data-name="Ellipse 3" class="cls-6" cx="54.315" cy="54.315" r="54.315" transform="translate(656.804 1.7)"/>
  <path id="Path_24" data-name="Path 24" class="cls-1" d="M770.486,150.946c0,40.981-24.362,55.29-54.415,55.29s-54.415-14.309-54.415-55.29,54.415-93.115,54.415-93.115S770.486,109.965,770.486,150.946Z" transform="translate(-59.514 -57.831)"/>
  <path id="Path_25" data-name="Path 25" class="cls-5" d="M654.575,142.135l.557-34.3,23.193-42.43-23.105,37.05.25-15.421,15.985-30.7L655.537,82.956h0l.45-27.736L673.1,30.78,656.058,50.858,656.339,0,654.57,67.327l.146-2.778-17.4-26.637,17.124,31.969-1.622,30.977-.048-.823L632.705,72l20,30.937-.2,3.874-.036.058.017.318-4.114,78.59h5.5l.66-40.593,19.952-30.861Z"/>
  <path id="Path_26" data-name="Path 26" class="cls-1" d="M901.6,212.2c-13,38.863-40.646,44.7-69.146,35.168s-47.063-30.834-34.061-69.7,81.147-71.039,81.147-71.039S914.606,173.336,901.6,212.2Z" transform="translate(-59.514 -57.831)"/>
  <path id="Path_27" data-name="Path 27" class="cls-5" d="M773.053,182.962l11.41-32.348,35.457-32.88-33.667,27.805,5.131-14.545,24.9-24.04-23.541,20.191h0l9.228-26.16,23.986-17.746L803.42,96.871l16.4-48.141-23.039,63.287,1.019-2.588-8.052-30.782,6.1,35.75L784.48,143.259l.216-.795-10.132-32.949,9.152,35.684-1.421,3.609-.053.044-.085.307L753.32,222.383l5.213,1.744,13.505-38.287L800.751,162.9Z"/>
  <path id="Path_28" data-name="Path 28" class="cls-1" d="M631.505,180.928c14.738,38.239-2.848,60.352-30.89,71.16s-55.92,6.218-70.658-32.021,17.286-106.454,17.286-106.454S616.766,142.689,631.505,180.928Z" transform="translate(-59.514 -57.831)"/>
  <path id="Path_29" data-name="Path 29" class="cls-5" d="M537,189.12l-11.815-32.2,6.382-47.932-8.235,42.881-5.313-14.48,3.875-34.393-5.28,30.561h0l-9.555-26.042,7.182-28.96-8.684,24.865L487.526,55.86l22.562,63.459-.863-2.644-25.818-18.6,27.475,23.672,9.627,29.487-.34-.75-28.8-18.941,29.789,21.673,1.2,3.688-.013.067.13.291L546.9,232.076l5.129-1.976-13.984-38.115,7.519-35.971Z"/>
  <path id="Path_31" data-name="Path 31" class="cls-2" d="M918.069,344.643c.624,6.317-2.914,8.894-7.546,9.351s-8.606-1.377-9.23-7.694,6.97-15.182,6.97-15.182S917.445,338.325,918.069,344.643Z" transform="translate(-59.514 -57.831)"/>
  <path id="Path_32" data-name="Path 32" class="cls-2" d="M498,391.288c-3.372,5.378-7.746,5.252-11.69,2.779s-5.964-6.355-2.593-11.733,14.8-7.744,14.8-7.744S501.374,385.91,498,391.288Z" transform="translate(-59.514 -57.831)"/>
  <path id="Path_34" data-name="Path 34" class="cls-7" d="M746.062,306.924l108.045,169.62L962.15,646.163H529.972l108.045-169.62Z" transform="translate(-284.18 134.941)"/>
</svg>
